<svg width="48" height="48" viewBox="0 0 48 48" fill="none" xmlns="http://www.w3.org/2000/svg">
<g filter="url(#filter0_i_0_671)">
<circle cx="24" cy="24" r="24" fill="#1A7373"/>
</g>
<path fill-rule="evenodd" clip-rule="evenodd" d="M24.2727 31.0872C25.4761 31.7833 26.8733 32.1818 28.3636 32.1818C32.8823 32.1818 36.5454 28.5186 36.5454 23.9999C36.5454 19.4812 32.8823 15.8181 28.3636 15.8181C26.8733 15.8181 25.4761 16.2165 24.2727 16.9127C23.0692 16.2165 21.672 15.8181 20.1818 15.8181V17.3057C21.1579 17.3057 22.0853 17.5147 22.9216 17.8903C21.2404 19.3887 20.1818 21.5707 20.1818 23.9999C20.1818 26.4292 21.2404 28.6111 22.9216 30.1096C22.0853 30.4852 21.1579 30.6941 20.1818 30.6941C16.4847 30.6941 13.4876 27.697 13.4876 23.9999H12C12 28.5186 15.6631 32.1818 20.1818 32.1818C21.672 32.1818 23.0692 31.7833 24.2727 31.0872ZM25.6238 30.1096C26.4601 30.4852 27.3874 30.6941 28.3636 30.6941C32.0607 30.6941 35.0578 27.697 35.0578 23.9999C35.0578 20.3028 32.0607 17.3057 28.3636 17.3057C27.3874 17.3057 26.4601 17.5147 25.6238 17.8903C27.3049 19.3887 28.3636 21.5707 28.3636 23.9999C28.3636 26.4292 27.3049 28.6111 25.6238 30.1096ZM24.2727 29.2991C25.8563 28.0748 26.876 26.1565 26.876 23.9999C26.876 21.8434 25.8563 19.9251 24.2727 18.7008C22.6891 19.9251 21.6694 21.8434 21.6694 23.9999C21.6694 26.1565 22.6891 28.0748 24.2727 29.2991Z" fill="white"/>
<defs>
<filter id="filter0_i_0_671" x="0" y="0" width="48" height="48" filterUnits="userSpaceOnUse" color-interpolation-filters="sRGB">
<feFlood flood-opacity="0" result="BackgroundImageFix"/>
<feBlend mode="normal" in="SourceGraphic" in2="BackgroundImageFix" result="shape"/>
<feColorMatrix in="SourceAlpha" type="matrix" values="0 0 0 0 0 0 0 0 0 0 0 0 0 0 0 0 0 0 127 0" result="hardAlpha"/>
<feOffset/>
<feGaussianBlur stdDeviation="17.5"/>
<feComposite in2="hardAlpha" operator="arithmetic" k2="-1" k3="1"/>
<feColorMatrix type="matrix" values="0 0 0 0 0 0 0 0 0 0 0 0 0 0 0 0 0 0 0.0452633 0"/>
<feBlend mode="normal" in2="shape" result="effect1_innerShadow_0_671"/>
</filter>
</defs>
</svg>
