<svg width="48" height="48" viewBox="0 0 48 48" fill="none" xmlns="http://www.w3.org/2000/svg">
<g filter="url(#filter0_i_0_575)">
<circle cx="24" cy="24" r="24" fill="#19ACDE"/>
</g>
<path fill-rule="evenodd" clip-rule="evenodd" d="M14.517 27.6669H12.5708L13.7192 21.2727H15.6654L15.2622 23.528C15.6128 23.1132 16.1739 22.7589 16.9103 22.7589C18.05 22.7589 18.576 23.5798 18.348 24.8414L17.8396 27.6669H15.9021L16.3668 25.0833C16.4544 24.6167 16.2265 24.3316 15.8057 24.3316C15.3761 24.3316 15.0693 24.6167 14.9816 25.0833V25.0747L14.517 27.6669ZM10.5173 24.7085C11.2425 24.9182 12.2157 25.1996 12.2157 26.1375C12.2157 27.1658 11.2163 27.7274 9.86624 27.7274C8.44603 27.7274 7.48169 27.0189 7.65703 25.982H9.52434C9.51557 26.2758 9.72597 26.4054 10.024 26.4054C10.2257 26.4054 10.3922 26.3017 10.3922 26.1721C10.3922 25.9676 10.0591 25.8765 9.63917 25.7617C8.92327 25.566 7.9551 25.3014 7.9551 24.2884C7.9551 23.4156 8.7967 22.733 10.1029 22.733C11.5582 22.733 12.3385 23.5193 12.3034 24.4785H10.5763C10.5763 24.2192 10.4098 24.0637 10.0942 24.0637C9.90131 24.0637 9.74351 24.1415 9.74351 24.2884C9.74351 24.4847 10.0867 24.584 10.5173 24.7085ZM24.0245 24.7809C24.0245 23.5366 23.1215 22.733 21.8065 22.733C20.0269 22.733 18.6943 23.9773 18.6943 25.6882C18.6943 26.9325 19.5973 27.7274 20.9123 27.7274C22.692 27.7274 24.0245 26.5091 24.0245 24.7809ZM21.5084 24.3921C20.9737 24.3921 20.6931 24.9883 20.6931 25.4808C20.6931 25.8869 20.9123 26.0684 21.2104 26.0684C21.7451 26.0684 22.0257 25.4722 22.0257 24.9796C22.0257 24.5735 21.7977 24.3921 21.5084 24.3921ZM26.3433 25.6709C26.466 25.0056 26.8693 24.8068 27.5706 24.8068H28.1229L28.4824 22.7589C27.8424 22.7589 27.1849 23.1478 26.7027 23.6921L26.8605 22.7935H24.9143L24.0376 27.6669H25.9839L26.3433 25.6709ZM30.3628 27.6669C29.2056 27.6669 28.4166 27.1831 28.6884 25.6709L28.9163 24.3921H28.3027L28.592 22.7935H29.2056L29.416 21.6183H31.3622L31.1518 22.7935H31.9584L31.6691 24.3921H30.8625L30.6258 25.7055C30.5908 25.9301 30.6784 26.0338 30.9327 26.0338H31.3973L31.0992 27.6669H30.3628ZM31.7348 27.6669H33.681L34.8295 21.2727H32.8833L31.7348 27.6669ZM34.7988 22.7935L36.0261 27.425L34.3254 30H36.4557L40.9092 22.7935H38.7614L37.4463 25.2648L36.9642 22.7935H34.7988Z" fill="white"/>
<defs>
<filter id="filter0_i_0_575" x="0" y="0" width="48" height="48" filterUnits="userSpaceOnUse" color-interpolation-filters="sRGB">
<feFlood flood-opacity="0" result="BackgroundImageFix"/>
<feBlend mode="normal" in="SourceGraphic" in2="BackgroundImageFix" result="shape"/>
<feColorMatrix in="SourceAlpha" type="matrix" values="0 0 0 0 0 0 0 0 0 0 0 0 0 0 0 0 0 0 127 0" result="hardAlpha"/>
<feOffset/>
<feGaussianBlur stdDeviation="17.5"/>
<feComposite in2="hardAlpha" operator="arithmetic" k2="-1" k3="1"/>
<feColorMatrix type="matrix" values="0 0 0 0 0 0 0 0 0 0 0 0 0 0 0 0 0 0 0.0452633 0"/>
<feBlend mode="normal" in2="shape" result="effect1_innerShadow_0_575"/>
</filter>
</defs>
</svg>
