<svg width="48" height="48" viewBox="0 0 48 48" fill="none" xmlns="http://www.w3.org/2000/svg">
<g filter="url(#filter0_i_0_526)">
<circle cx="24" cy="24" r="24" fill="#403646"/>
</g>
<path fill-rule="evenodd" clip-rule="evenodd" d="M18.0184 25.5023C17.8388 25.4238 17.6617 25.3357 17.4871 25.2378L16.9666 26.0238C17.1493 26.1278 17.348 26.2232 17.5626 26.3098C17.7772 26.3965 18.003 26.4709 18.2402 26.5331C18.4774 26.5953 18.7253 26.6432 18.9841 26.6769C19.2428 26.7105 19.5077 26.7273 19.7787 26.7273C20.1894 26.7273 20.5621 26.6891 20.8968 26.6126C21.2315 26.5362 21.5175 26.424 21.7546 26.2762C21.9918 26.1283 22.1745 25.9469 22.3029 25.7317C22.4312 25.5166 22.4954 25.2714 22.4954 24.9961C22.4954 24.7902 22.4574 24.6041 22.3814 24.4379C22.3054 24.2718 22.1935 24.13 22.0457 24.0128C21.8978 23.8956 21.7146 23.8053 21.4959 23.7421C21.2772 23.6789 21.0262 23.6473 20.7428 23.6473C20.5929 23.6473 20.4384 23.6549 20.2792 23.6702C20.1201 23.6855 19.9641 23.7023 19.8111 23.7207L19.587 23.7471L19.3737 23.7712C19.2351 23.7865 19.1124 23.7941 19.0056 23.7941C18.7407 23.7941 18.5436 23.7487 18.4142 23.658C18.2849 23.5673 18.2202 23.4505 18.2202 23.3078C18.2202 23.2344 18.2402 23.1605 18.2803 23.086C18.3203 23.0116 18.3917 22.9443 18.4943 22.8842C18.597 22.824 18.7351 22.7746 18.9086 22.7358C19.0821 22.6971 19.3034 22.6777 19.5724 22.6777C19.7613 22.6777 19.9466 22.6884 20.1283 22.7098C20.3101 22.7312 20.4861 22.7603 20.6566 22.797C20.827 22.8337 20.9902 22.877 21.1463 22.927C21.3024 22.9769 21.4481 23.0315 21.5837 23.0906L22.0118 22.3076C21.8475 22.2342 21.6699 22.1674 21.479 22.1073C21.288 22.0471 21.0893 21.9956 20.8829 21.9528C20.6766 21.91 20.4646 21.8769 20.2469 21.8534C20.0292 21.83 19.8126 21.8182 19.597 21.8182C19.2993 21.8182 19.0339 21.8391 18.8008 21.8809C18.5677 21.9227 18.3624 21.9803 18.1848 22.0538C18.0072 22.1272 17.8557 22.2143 17.7305 22.3153C17.6052 22.4162 17.503 22.5253 17.424 22.6425C17.3449 22.7598 17.2874 22.8826 17.2515 23.0111C17.2156 23.1396 17.1976 23.269 17.1976 23.3995C17.1976 23.6198 17.2428 23.8125 17.3331 23.9776C17.4235 24.1428 17.5451 24.2804 17.6981 24.3905C17.8511 24.5007 18.0267 24.5832 18.2248 24.6383C18.423 24.6933 18.6298 24.7209 18.8455 24.7209C18.9748 24.7209 19.1129 24.7122 19.2597 24.6949C19.4066 24.6775 19.5554 24.6587 19.7063 24.6383L19.9316 24.6088L20.1545 24.5817C20.3024 24.5644 20.443 24.5557 20.5765 24.5557C20.8804 24.5557 21.1052 24.6062 21.251 24.7071C21.3968 24.808 21.4697 24.9452 21.4697 25.1185C21.4697 25.2266 21.4405 25.3265 21.3819 25.4182C21.3234 25.51 21.23 25.589 21.1016 25.6553C20.9733 25.7216 20.8075 25.7735 20.6042 25.8113C20.4009 25.849 20.1545 25.8679 19.865 25.8679C19.6247 25.8679 19.3983 25.8536 19.1858 25.825C18.9733 25.7965 18.7705 25.7552 18.5775 25.7012C18.3845 25.6471 18.1981 25.5809 18.0184 25.5023ZM8.72729 21.8794H9.70985V26.66H8.72729V21.8794ZM10.9481 21.8794H11.9244L14.9245 23.4393V21.8794H15.9009V26.66H14.9245V24.467L11.9244 22.9163V26.66H10.9481V21.8794ZM23.3886 21.8794H24.365V24.5129C24.365 24.729 24.3948 24.9212 24.4543 25.0894C24.5139 25.2577 24.6027 25.3999 24.7208 25.5161C24.8388 25.6323 24.9851 25.7205 25.1597 25.7807C25.3342 25.8408 25.5375 25.8709 25.7695 25.8709C25.9995 25.8709 26.2023 25.8408 26.3779 25.7807C26.5534 25.7205 26.7003 25.6323 26.8183 25.5161C26.9364 25.3999 27.0252 25.2577 27.0848 25.0894C27.1443 24.9212 27.1741 24.729 27.1741 24.5129V21.8794H28.1505V24.6291C28.1505 24.9431 28.0971 25.2286 27.9903 25.4855C27.8835 25.7425 27.7285 25.9627 27.5252 26.1462C27.3219 26.3297 27.0729 26.4714 26.7783 26.5713C26.4836 26.6713 26.1474 26.7212 25.7695 26.7212C25.3917 26.7212 25.0555 26.6713 24.7608 26.5713C24.4661 26.4714 24.2172 26.3297 24.0139 26.1462C23.8106 25.9627 23.6556 25.7425 23.5488 25.4855C23.442 25.2286 23.3886 24.9431 23.3886 24.6291V21.8794ZM31.7881 21.8794H29.3394V26.66H30.3158V25.299L31.822 25.302L32.7275 26.66H33.9226L32.8754 25.1307C33.0581 25.0614 33.2173 24.9742 33.3528 24.8692C33.4883 24.7642 33.6007 24.6444 33.6901 24.5098C33.7794 24.3752 33.8456 24.2279 33.8887 24.0679C33.9318 23.9078 33.9534 23.7391 33.9534 23.5617C33.9534 23.2986 33.9098 23.0631 33.8225 22.8551C33.7352 22.6471 33.6023 22.4707 33.4236 22.326C33.245 22.1812 33.0201 22.0706 32.7491 21.9941C32.478 21.9176 32.1577 21.8794 31.7881 21.8794ZM31.8127 24.4609C31.9975 24.4609 32.1592 24.4395 32.2978 24.3967C32.4364 24.3538 32.5525 24.2937 32.6459 24.2162C32.7393 24.1387 32.8091 24.0444 32.8553 23.9333C32.9015 23.8221 32.9246 23.6983 32.9246 23.5617C32.9246 23.2945 32.8322 23.0881 32.6474 22.9423C32.4626 22.7965 32.1844 22.7236 31.8127 22.7236H30.3158V24.4609H31.8127ZM39.2081 21.8794H35.1084V26.66H39.2727V25.8128H36.0848V24.4823H38.8508V23.684H36.0848V22.7297H39.2081V21.8794Z" fill="#F3D3CA"/>
<defs>
<filter id="filter0_i_0_526" x="0" y="0" width="48" height="48" filterUnits="userSpaceOnUse" color-interpolation-filters="sRGB">
<feFlood flood-opacity="0" result="BackgroundImageFix"/>
<feBlend mode="normal" in="SourceGraphic" in2="BackgroundImageFix" result="shape"/>
<feColorMatrix in="SourceAlpha" type="matrix" values="0 0 0 0 0 0 0 0 0 0 0 0 0 0 0 0 0 0 127 0" result="hardAlpha"/>
<feOffset/>
<feGaussianBlur stdDeviation="17.5"/>
<feComposite in2="hardAlpha" operator="arithmetic" k2="-1" k3="1"/>
<feColorMatrix type="matrix" values="0 0 0 0 0 0 0 0 0 0 0 0 0 0 0 0 0 0 0.0452633 0"/>
<feBlend mode="normal" in2="shape" result="effect1_innerShadow_0_526"/>
</filter>
</defs>
</svg>
