<svg width="48" height="48" viewBox="0 0 48 48" fill="none" xmlns="http://www.w3.org/2000/svg">
<g filter="url(#filter0_i_0_441)">
<circle cx="24" cy="24" r="24" fill="url(#paint0_linear_0_441)"/>
</g>
<path fill-rule="evenodd" clip-rule="evenodd" d="M39.0173 23.7126C39.0377 23.8893 39.0525 23.9971 39.0615 24.0361L39.6123 26.5242H40.3637L39.1601 21.2727L37.7253 24.4491C37.7117 24.4812 37.6913 24.5271 37.6641 24.5867C37.5621 24.8093 37.4873 24.9928 37.4397 25.1373C37.374 24.9653 37.3179 24.8207 37.2714 24.7037C37.2249 24.5867 37.1904 24.503 37.1677 24.4525L35.6989 21.2727L34.5225 26.5242H35.2671L35.8009 24.043C35.8304 23.9168 35.8525 23.7958 35.8672 23.6799C35.8819 23.5641 35.8904 23.4534 35.8927 23.3478C35.9222 23.4511 35.9567 23.5555 35.9964 23.661C36.0361 23.7665 36.0831 23.8755 36.1375 23.9879L37.4397 26.7273L38.7419 24.043C38.7986 23.9237 38.8456 23.8067 38.883 23.692C38.9204 23.5773 38.9493 23.4626 38.9697 23.3478C38.9833 23.4442 38.9992 23.5658 39.0173 23.7126ZM32.4358 26.5242L31.8714 25.2268H29.8994L29.3214 26.5242H28.4714L30.882 21.2865L33.2892 26.5242H32.4358ZM26.9016 22.7112C26.6726 22.5139 26.4307 22.3659 26.1756 22.2673C25.9206 22.1686 25.6526 22.1193 25.3715 22.1193C24.8275 22.1193 24.385 22.2959 24.0438 22.6492C23.7027 23.0026 23.5321 23.4603 23.5321 24.0223C23.5321 24.5661 23.6982 25.0146 24.0302 25.3679C24.3623 25.7212 24.7811 25.8979 25.2865 25.8979C25.5812 25.8979 25.8617 25.8451 26.128 25.7396C26.3944 25.634 26.65 25.4746 26.8948 25.2612V26.187C26.6772 26.3453 26.4403 26.4634 26.1841 26.5414C25.928 26.6194 25.6503 26.6584 25.3511 26.6584C24.9703 26.6584 24.6184 26.5953 24.2954 26.4691C23.9724 26.343 23.6885 26.1571 23.4437 25.9116C23.2012 25.6708 23.0147 25.3868 22.8844 25.0599C22.7541 24.733 22.6889 24.3848 22.6889 24.0155C22.6889 23.6461 22.7541 23.2991 22.8844 22.9745C23.0147 22.6498 23.2034 22.3648 23.4505 22.1193C23.6976 21.8715 23.9809 21.6839 24.3005 21.5566C24.6201 21.4293 24.9658 21.3656 25.3375 21.3656C25.6299 21.3656 25.9087 21.4086 26.1739 21.4947C26.4392 21.5807 26.6964 21.7109 26.9458 21.8853L26.9016 22.7112ZM7.63647 26.5242V21.4861H10.4143V22.1812H8.44568V23.4442H10.4143V24.1634H8.44568V25.7912H10.4143V26.5242H7.63647ZM13.657 26.5242V24.2185L11.9807 21.4861H12.8308L13.8746 23.1964C13.8995 23.24 13.9307 23.2974 13.9681 23.3685C14.0055 23.4396 14.0434 23.5165 14.082 23.5991C14.1137 23.5188 14.1471 23.4431 14.1823 23.3719C14.2174 23.3008 14.2542 23.2354 14.2928 23.1758L15.3638 21.4861H16.173L14.4594 24.2185V26.5242H13.657ZM17.957 21.4861V26.5242H20.7349V25.7912H18.7662V24.1634H20.7349V23.4442H18.7662V22.1812H20.7349V21.4861H17.957ZM31.5858 24.5454H30.1986L30.7086 23.396C30.7404 23.3157 30.7715 23.228 30.8021 23.1328C30.8327 23.0375 30.8616 22.9349 30.8888 22.8248C30.9206 22.9418 30.9523 23.0479 30.984 23.1431C31.0158 23.2383 31.0464 23.3226 31.0758 23.396L31.5858 24.5454Z" fill="white"/>
<defs>
<filter id="filter0_i_0_441" x="0" y="0" width="48" height="48" filterUnits="userSpaceOnUse" color-interpolation-filters="sRGB">
<feFlood flood-opacity="0" result="BackgroundImageFix"/>
<feBlend mode="normal" in="SourceGraphic" in2="BackgroundImageFix" result="shape"/>
<feColorMatrix in="SourceAlpha" type="matrix" values="0 0 0 0 0 0 0 0 0 0 0 0 0 0 0 0 0 0 127 0" result="hardAlpha"/>
<feOffset/>
<feGaussianBlur stdDeviation="17.5"/>
<feComposite in2="hardAlpha" operator="arithmetic" k2="-1" k3="1"/>
<feColorMatrix type="matrix" values="0 0 0 0 0 0 0 0 0 0 0 0 0 0 0 0 0 0 0.0452633 0"/>
<feBlend mode="normal" in2="shape" result="effect1_innerShadow_0_441"/>
</filter>
<linearGradient id="paint0_linear_0_441" x1="0.469383" y1="0" x2="0.469383" y2="47.0612" gradientUnits="userSpaceOnUse">
<stop stop-color="#43E2DF"/>
<stop offset="1" stop-color="#156A8D"/>
</linearGradient>
</defs>
</svg>
